<svg id="layer" xmlns="http://www.w3.org/2000/svg" viewBox="0 0 181 209.5"><defs><style>.cls-1{fill:#fff;}</style></defs><path class="cls-1" d="M-214.4,211.6l-76.4-45.3a14.14,14.14,0,0,0-7.1-1.8,13.88,13.88,0,0,0-7.1,1.8l-76.4,45.3a15.33,15.33,0,0,0-7,12.3v90.7a15.33,15.33,0,0,0,7,12.3l76.4,45.3a14.9,14.9,0,0,0,14.2,0l76.4-45.3a15.33,15.33,0,0,0,7-12.3V223.9A15.33,15.33,0,0,0-214.4,211.6Zm-64.9,77.6a6,6,0,0,1-6.2,5.9,6,6,0,0,1-6.2-5.9V277.8a3.5,3.5,0,0,0-3.7-3.3,3.56,3.56,0,0,0-3.7,3.3v10.7a6,6,0,0,1-6.2,5.9,6,6,0,0,1-6.2-5.9V273.9a3.5,3.5,0,0,0-3.7-3.3,3.56,3.56,0,0,0-3.7,3.3v28.9a6,6,0,0,1-6.2,5.9,6,6,0,0,1-6.2-5.9V281.6a3.5,3.5,0,0,0-3.7-3.3,3.56,3.56,0,0,0-3.7,3.3v1.6a6.23,6.23,0,0,1-6.2,6.2,6.23,6.23,0,0,1-6.2-6.2V264.7a6.23,6.23,0,0,1,6.2-6.2,6.23,6.23,0,0,1,6.2,6.2v1.5a3.5,3.5,0,0,0,3.7,3.3,3.56,3.56,0,0,0,3.7-3.3V252.9a6,6,0,0,1,6.2-5.9,6,6,0,0,1,6.2,5.9v5.6a3.5,3.5,0,0,0,3.7,3.3,3.56,3.56,0,0,0,3.7-3.3V242.9a6,6,0,0,1,6.2-5.9,6,6,0,0,1,6.2,5.9v19.4a3.5,3.5,0,0,0,3.7,3.3,3.56,3.56,0,0,0,3.7-3.3V248a6,6,0,0,1,6.2-5.9,6,6,0,0,1,6.2,5.9Zm19.9-1.8a6,6,0,0,1-6.2,5.9,6,6,0,0,1-6.2-5.9V263.9a6,6,0,0,1,6.2-5.9,6,6,0,0,1,6.2,5.9Zm19.9-5.8a6,6,0,0,1-6.2,5.9,6,6,0,0,1-6.2-5.9v-5.8a6,6,0,0,1,6.2-5.9,6.11,6.11,0,0,1,6.2,5.9Z" transform="translate(388.4 -164.5)"/></svg>