<svg xmlns="http://www.w3.org/2000/svg" viewBox="0 0 112.59 78.4"><defs><style>.cls-1{fill:#fff;}</style></defs><g id="Camada_2" data-name="Camada 2"><g id="Camada_1-2" data-name="Camada 1"><path class="cls-1" d="M107.29,70H108c1.93,0,4.64.32,4.64,3.91,0,3.15-2,3.81-4.53,3.81H99.54c-2.61,0-4.33-1.19-4.33-3.85,0-3.19,2.1-3.8,4.44-3.8h.75v2.63H99.34c-1.12,0-1.76.26-1.76,1.17s.61,1.19,1.77,1.19h8.93c1.1,0,2-.22,2-1.22s-.75-1.2-2-1.2h-.95Z"/><path class="cls-1" d="M107.82,65.42l4.52.6v2.66L95.45,65.94V62.25l16.89-2.84v2.73l-4.52.67Zm-2.39-2.3c-2.87.39-5.59.76-7.5.95v.1c1.39.07,5,.58,7.5.92Z"/><path class="cls-1" d="M107.37,55.28h1c1.26,0,2-.38,2-1.38s-1-1.28-2.06-1.28c-1.81,0-2.38.39-3.81,2.21s-2.35,2.81-4.85,2.81c-2.22,0-4.47-.68-4.47-3.74s2.23-3.62,4.06-3.62h.9v2.59h-.83c-1.17,0-1.89.2-1.89,1.07S98.16,55,99.28,55s1.78-.23,2.86-1.72c1.87-2.54,3-3.32,5.78-3.32,2.4,0,4.67.84,4.67,4s-2,3.91-4.22,3.91h-1Z"/><path class="cls-1" d="M97.87,46.13v2.72H95.45V40.77h2.42v2.74h14.47v2.62Z"/><path class="cls-1" d="M59.36,77.46a1.38,1.38,0,0,0-.4-.86,4.81,4.81,0,0,1-.59-.9c-.16-.3-.24-.63-.37-.93-.35-.75-.76-2-1-2.75-.61-1.66-1.4-3.23-2.07-4.86-.24-.57-.54-1.12-.78-1.7-.64-1.54-1.25-3.1-1.88-4.64-.31-.74-.65-1.47-1-2.2C50.7,57.3,50.16,56,49.6,54.67c-.34-.82-.71-1.63-1.05-2.45-.46-1.11-.9-2.23-1.36-3.35-.39-1-.8-1.93-1.2-2.9-.56-1.36-1.11-2.72-1.66-4.08a3.69,3.69,0,0,1-.44-1.18c0-.5-.32-.46-.54-.37a4.11,4.11,0,0,1-1.3.13c-.45,0-.91.13-1.36.14H34.36a1.25,1.25,0,0,1-.55,0c-.32-.19-.59,0-.9,0s-.34,0-.18.37a1.3,1.3,0,0,1,0,.91c-.28.82-.61,1.62-.94,2.43-.68,1.67-1.44,3.3-2.07,5-.5,1.32-1.09,2.59-1.65,3.88-.41.91-.85,1.81-1.25,2.73-.63,1.45-1.24,2.91-1.86,4.36-.27.64-.58,1.26-.85,1.89-.58,1.35-1.13,2.71-1.71,4.07-.27.63-.58,1.25-.85,1.89-.56,1.33-1.08,2.68-1.68,4-.39.85-.68,1.74-1.13,2.57a15.4,15.4,0,0,0-1,2.41,1,1,0,0,1-.21.37h0a6.75,6.75,0,0,0,.23.79l0,.11v0l.34,0,.59-.05h0l6.94-.14c.84,0,1.67,0,2.51,0l0-.82,0-.6c.11-.34.25-.67.38-1,.3-.79.61-1.58.92-2.37.47-1.16.47-1.16,1.57-1.16H41.72a5.87,5.87,0,0,0,1.51,0,.33.33,0,0,1,.22,0c.36.12.74.41,1.08.35a5.6,5.6,0,0,1,1.18-.21c.47,0,.53.08.71.57.29.8.59,2.09.89,2.88.14.36.27.71.41,1.06,0,0,0,0,0,0l.18.45.38,1a3.83,3.83,0,0,1,1.16-.1c.93-.08,1.87,0,2.8,0a47.6,47.6,0,0,1,6.43.12.47.47,0,0,0,.38-.09,1.13,1.13,0,0,0,.23-.47,1.18,1.18,0,0,0,0-.32h0ZM37.18,53.74c.27-.7.56-1.4.86-2.1,0-.11.17-.2.25-.29a1.82,1.82,0,0,1,.16.31c.68,1.84,1.39,3.66,2,5.52.4,1.15.84,2.3,1.3,3.43a4,4,0,0,1,.15.45h0l.4,1.06,0,.08c.21.58.43,1.15.65,1.72-2.38,0-4.75,0-7.13,0-.91,0-1.82,0-2.73,0l.33-.89.88-2.17a.93.93,0,0,1,0-.13c.65-1.49,1.27-3,1.87-4.5C36.6,55.43,36.86,54.58,37.18,53.74Z"/><path class="cls-1" d="M90.9,74.94c-.09-.8-.15-1.61-.22-2.42,0-.4-.06-.8-.12-1.21s-.15-.92-.21-1.39a9.67,9.67,0,0,0-.13-1.32c-.19-.76-.16-1.55-.3-2.32a13.11,13.11,0,0,1-.13-1.66,5.51,5.51,0,0,0-.12-1.09,10.45,10.45,0,0,1-.2-1.46c-.08-.54-.06-1.11-.13-1.66-.09-.78-.25-1.54-.31-2.32s-.14-1.27-.22-1.9c-.12-.9-.16-1.81-.23-2.71a6.57,6.57,0,0,0-.13-1.26,13.08,13.08,0,0,1-.19-1.4c-.1-.52,0-1.08-.15-1.6-.08-.37,0-.76-.1-1.09-.17-.5-.07-1-.19-1.52s0-1.16-.15-1.72,0-.81-.1-1.21a13.66,13.66,0,0,1-.21-2.3c0-.2,0-.35.22-.45s.23-.24,0-.33c-.09,0-.19-.07-.28-.12a.19.19,0,0,1-.1-.1c0-.24-.12-.33-.23-.2a1.2,1.2,0,0,1-1.1.3,25.82,25.82,0,0,1-3.17-.09,6.66,6.66,0,0,0-1.33.09,6.11,6.11,0,0,0-1.12-.09c-.65.12-1.73.1-1.5.5a.22.22,0,0,1,0,.16c-.19.29-.08.62-.11.93s-.07.5-.11.75-.09.46-.11.7a3.62,3.62,0,0,1,0,1,3.56,3.56,0,0,0-.11,1.21,1.08,1.08,0,0,1,0,.18A13.32,13.32,0,0,0,78,48.14,13.14,13.14,0,0,0,77.85,50c0,.07,0,.16,0,.23a3.56,3.56,0,0,0-.22,1.45c0,.53-.07,1.07-.11,1.61a5.91,5.91,0,0,1-.12,1,9.63,9.63,0,0,0-.21,1.51,12,12,0,0,1-.13,1.6c-.07.34,0,.67-.1,1-.19.82-.19,1.66-.31,2.49-.08.61-.14,1.23-.22,1.85-.12.83-.16,1.68-.23,2.53,0,.48-.06,1-.12,1.44-.09.79-.23,1.58-.32,2.37,0,.2,0,.29-.09.34l-.06.29c0,.23,0,.45,0,.67s0,.23,0,.35V71c0,.21-.07.42-.11.64s-.09.42-.11.64c0,.55-.07,1.11-.11,1.66a3.93,3.93,0,0,1-.12.92,9.45,9.45,0,0,0-.2,1.28,8.51,8.51,0,0,1-.1,1,1.57,1.57,0,0,0,0,.77c0,.08,0,.13,0,.18h0a1.76,1.76,0,0,0,.13.37l.53-.09h5.46V76.58c0-.64.07-1.29.09-1.94,0-.24.11-.33.33-.33h3.43c.22,0,.33.09.34.33,0,.74.07,1.49.11,2.24,0,.11-.05.28,0,.33a.22.22,0,0,1,0,.35c-.3.22-.1.35.05.5a.77.77,0,0,0,.62.25c.54,0,1.08-.11,1.62-.11,1,0,1.92.08,2.88.11.26,0,.51,0,.77,0l-.07-1.07C91.14,76.45,91,75.7,90.9,74.94Zm-6.41-5.33c-.25,0-.54.23-.75-.1a.22.22,0,0,0-.16,0,5.3,5.3,0,0,1-1.73.11c-.25,0-.42-.1-.35-.35.22-.74,0-1.51.2-2.25a3.23,3.23,0,0,0,0-1l0-.16.12-1.39h0A17.55,17.55,0,0,1,82,62.51c.06-.47,0-.94.1-1.38.13-.64,0-1.28.12-1.9s0-1.19.1-1.78c.11-1,.14-2,.24-2.93.06-.61,0-1.24.1-1.83a13.78,13.78,0,0,1,.3-2.49c.07-.17,0-.38,0-.57,0-.57.1-1.15.09-1.72,0-.37,0-.74,0-1.11a.34.34,0,0,1,0-.14.58.58,0,0,1,.05.14,2.08,2.08,0,0,1,.11.41c0,.84,0,1.69.13,2.52s.15,1.84.23,2.76c0,.52,0,1,.09,1.55.07.94.1,1.89.24,2.81.07.47.06.93.09,1.39.07,1,.09,1.92.24,2.87.08.48,0,1,.09,1.44s.08.69.11,1a2.61,2.61,0,0,0,.11,1c0,.08,0,.19,0,.29s0,1,0,1.14c0,.51.06,1,.11,1.51,0,.21.07.42.1.64a3.11,3.11,0,0,0,.1.87Q85.09,69.67,84.49,69.61Z"/><path class="cls-1" d="M15,75.92c0-.7,0-1.4,0-2.1a3.78,3.78,0,0,1,.1-1.38.28.28,0,0,0,0-.2h-.78c-.26-.12-.49.08-.74,0s-.73.11-1.07-.11a18.18,18.18,0,0,1-3,.1c-.19,0,1.09,0,.92,0a2.35,2.35,0,0,0-1.46,0,1.21,1.21,0,0,1-.42,0,4.6,4.6,0,0,0-.64,0c-.15,0-.3.09-.45.09-.41,0-.82-.07-1.23-.12A.15.15,0,0,1,6.12,72,7.2,7.2,0,0,1,6,71c0-.35,0-.7,0-1,0-1,0-2,.09-3a17.12,17.12,0,0,0,0-2.15c0-3.41,0-6.82,0-10.23,0-2,0-4,0-6.08,0-.25.16-.54.08-.74a2.17,2.17,0,0,1-.08-.87c0-.38.09-.76.1-1.14,0-1.73,0-3.45,0-5.17,0-.13,0-.26,0-.39l-.2.27a.19.19,0,0,1-.09,0,3,3,0,0,1-.67.1c-.24,0-.51.11-.73-.1a3.31,3.31,0,0,1-2-.06s0,0-.08,0a14.09,14.09,0,0,1-1.45.08c-.67,0-.85.13-.79.84s0,1.3.12,1.94c0,.28-.2.51,0,.78-.27.46,0,.95,0,1.44a12.52,12.52,0,0,0,0,2.21c0,.15.15.38.09.45s-.09.44-.09.65v21.6a4.72,4.72,0,0,0,0,1.5s0,.13,0,.19a.76.76,0,0,0,0,.32,2.15,2.15,0,0,1,0,1.28c0,.14.06.31.07.47a5.77,5.77,0,0,1,0,.72c0,.14-.08.28-.09.41a3.55,3.55,0,0,0,0,1.18c.15.39,0,.73,0,1.09a.78.78,0,0,1,0,.33H0l.1.47,0,.09q.75,0,1.5,0c.63,0,1.27,0,1.9,0,.44,0,.89-.1,1.34-.1s.93.1,1.39.1h8.26a1.2,1.2,0,0,0,.33,0c.1,0,.24-.09.26-.16a2.63,2.63,0,0,0,.1-.91A6,6,0,0,1,15,75.92Z"/><path class="cls-1" d="M73.32,46.93c.19.17.28,0,.35-.1a.86.86,0,0,0,.1-.72,2.67,2.67,0,0,1-.17-.66c0-.78-.07-1.56-.09-2.34a10.65,10.65,0,0,0,0-1.13c-.06-.44-.34-.85,0-1.3,0,0,0-.23-.12-.33s-.17,0-.26.07l-.29.11a4.71,4.71,0,0,1-1.63.1c-.41,0-.83-.09-1.25-.1-1.5,0-3,0-4.5-.1-1-.08-1.92,0-2.88,0-1.46,0-2.92-.08-4.38-.1l-.14,0c-.4,0-.6.14-.69.35a1,1,0,0,1,.11.5c0,1.19,0,2.38,0,3.57,0,.11,0,.22,0,.33s-.62.61-.43.7l.42.22.07.58a.39.39,0,0,0,.22.11c.54.05,1.07.09,1.61.12s.78,0,1.22,0h1.66c.39,0,.45,0,.43.44,0,.78,0,1.56-.11,2.34-.14,1.72.33,3.46.1,5.18,0,7.1-.6,14.2-.45,21.3a3.1,3.1,0,0,0,.08,1.09.49.49,0,0,1,0,.27l.14.72a.29.29,0,0,1,.16,0c.18.11.37.33.57,0l.23.15c.06,0,.18.1.19.08.27-.38.6-.32,1-.17.07,0,.18,0,.22,0h.48a.57.57,0,0,0,.26,0h.6a.35.35,0,0,0,.3,0h1.26a.44.44,0,0,0-.05-.72s0-.1,0-.16c0-.83.23-1.67.22-2.5,0-2.62.11-5.23,0-7.85-.11-2.89.13-5.8,0-8.69,0-.39,0-.77,0-1.16A20.76,20.76,0,0,1,67.91,54a6.91,6.91,0,0,0,0-.91v-.91c0-.28,0-.57,0-.85s-.28-.55-.26-.83.08-.56.09-.85a17.47,17.47,0,0,1,.14-2.5c0-.25.1-.39.36-.37a3.75,3.75,0,0,0,.57.09c.2,0,.41-.09.61-.08.48,0,1,.09,1.45.1.68,0,1.36,0,2,0C73.08,46.89,73.24,46.86,73.32,46.93Z"/><path class="cls-1" d="M28.9,34c-.11-1.15,0-2.32,0-3.49-.09-2,0-3.91,0-5.87,0-1.68.13-3.36,0-5s0-3.6,0-5.4c-.05-4,0-8,.09-12.06,0-.15,0-.3,0-.44s0-.17,0-.22L29.3.86l0,0A6.52,6.52,0,0,0,28,.3a.93.93,0,0,0-.86,0,.79.79,0,0,1-.28.1c-.47,0-.93,0-1.4.1-.75.1-1.52.09-2.28.13-.07,0-.21,0-.22.08a.49.49,0,0,1,0,.14h0l-.06.45h0a.23.23,0,0,1,.05.14c0,.61.07,1.22.07,1.83,0,2.17-.12,4.33,0,6.5s-.16,4.4,0,6.59c0,.34,0,.67,0,1,.06,1.79-.13,3.58,0,5.37.12,1.51-.15,3,0,4.54a9,9,0,0,1,0,1.27.81.81,0,0,1,0,.17h0v.68l-.53,7.63.44.2h0l.08.67A.11.11,0,0,0,23,38c0,.05.07.12.3.08h0c.38-.05,3.32.21,3.32.21L28.51,38l.45-.18a7.28,7.28,0,0,0,0-1.4C28.86,35.64,29,34.83,28.9,34Z"/><path class="cls-1" d="M19.6.52a2,2,0,0,1-1.35,0c-.07,0-.17,0-.25.06-.31.15-.62-.08-.94,0-.07,0-.17,0-.25,0a2.73,2.73,0,0,0-1,0,1.25,1.25,0,0,1-.55.14c-.31,0-.62,0-.93,0,0,.24-.09.5-.09.57,0,.48-.08,1-.12,1.42A11,11,0,0,1,14,4.19c-.1.38,0,.77-.12,1.12a12.55,12.55,0,0,0-.21,1.48c-.11.51-.08,1-.15,1.57-.1.79-.27,1.56-.33,2.34s-.19,1.36-.24,2c-.07,1-.26,2-.36,3-.07.7-.14,1.38-.25,2.07s-.17,1.33-.24,2c-.09.91-.16,1.82-.24,2.73l-.12,1.19a.73.73,0,0,1-.07.19s-.08.06-.11.08a.36.36,0,0,1,0-.09c0-.38-.06-.76-.1-1.14s-.06-.71-.11-1.07c-.09-.69-.2-1.38-.29-2.07-.05-.42-.05-.84-.1-1.26-.09-.67-.26-1.34-.29-2,0-.88-.21-1.74-.32-2.6s-.14-1.55-.2-2.32c0-.37-.06-.74-.11-1.11s-.14-.94-.2-1.41,0-.83-.11-1.23c-.17-.8-.15-1.62-.3-2.42-.08-.43,0-.87-.12-1.3a12.07,12.07,0,0,1-.2-2.25c0-.24,0-.47,0-.71C9.05.59,9,.54,8.62.54c-1.08,0-2.17,0-3.27,0H2.91c0,.12,0,.23,0,.35,0,.47.07,1,.11,1.42a5.87,5.87,0,0,0,.12,1A5.53,5.53,0,0,1,3.4,4.72a3.38,3.38,0,0,1,.12,1.07c.09.65.23,1.3.32,2S4,9.23,4.06,10c0,.35.05.7.11,1a21.78,21.78,0,0,1,.33,2.39,4.62,4.62,0,0,0,.11,1,19,19,0,0,1,.31,2c.11.68.13,1.38.22,2.07s.22,1.38.32,2.07.14,1.14.21,1.71c.11.8.22,1.6.32,2.4s.14,1.39.21,2.09a6.91,6.91,0,0,0,.11.9,7.67,7.67,0,0,1,.19,1.26h0l.17,1.52h0c.06.32.12.64.15,1,.08.77.14,1.55.21,2.33,0,.33.06.67.1,1s.16.88.2,1.33.07,1.1.11,1.65a.51.51,0,0,0,.31.49,2.74,2.74,0,0,0,.8.1c.63,0,1.25,0,1.88,0a2.29,2.29,0,0,0,.37,0l1.09-.21c.78-.15,1.52.28,2.3.12.23.28.53-.12.76.07.09-.07.14-.09.18-.08h0l.22-.07.06-.1.22-.38a.46.46,0,0,1,0-.21c.05-.44.09-.88.13-1.32.05-.65.09-1.31.13-2,0,0,0-.08,0-.11a7.82,7.82,0,0,0,.24-1.67,10.89,10.89,0,0,1,.13-1.39,14.91,14.91,0,0,0,.24-2,13,13,0,0,1,.12-1.39c.11-.76.28-1.5.34-2.26s.15-1.58.26-2.37.21-1.47.25-2.21.17-1.52.24-2.29.18-1.48.26-2.23.15-1.38.26-2.07.2-1.54.25-2.31.14-1.52.26-2.27S19,7.94,19,7.14s.18-1.41.24-2.11a17,17,0,0,1,.5-2.38.55.55,0,0,0,0-.22c0-.12-.18.23-.19,0,0-.1.08-.2.11-.31s.12-.34.17-.51A4.34,4.34,0,0,0,20,.89C20,.59,19.86.44,19.6.52Z"/><path class="cls-1" d="M66.79,34.82c-.09-.8-.15-1.61-.22-2.42,0-.4-.06-.81-.12-1.21s-.15-.92-.21-1.39a9.52,9.52,0,0,0-.13-1.32c-.19-.76-.16-1.55-.3-2.32a13.11,13.11,0,0,1-.13-1.66,5.7,5.7,0,0,0-.12-1.1,10.31,10.31,0,0,1-.2-1.45c-.09-.55-.06-1.11-.13-1.66-.09-.78-.25-1.55-.31-2.32s-.14-1.27-.22-1.91c-.12-.89-.16-1.8-.23-2.7a6.48,6.48,0,0,0-.13-1.26,13.81,13.81,0,0,1-.19-1.4c-.1-.53,0-1.08-.15-1.6s0-.76-.1-1.1c-.17-.5-.07-1-.19-1.51s0-1.16-.15-1.72c-.08-.41,0-.81-.1-1.21a13.78,13.78,0,0,1-.21-2.31c0-.19,0-.35.22-.44s.23-.24,0-.33L63.17.36a.19.19,0,0,1-.1-.1C63,0,63-.07,62.84.06a1.22,1.22,0,0,1-1.1.3A25.82,25.82,0,0,1,58.57.27a7.48,7.48,0,0,0-1.33.08A7.2,7.2,0,0,0,56.12.27c-.65.11-1.73.1-1.5.49a.25.25,0,0,1,0,.17c-.19.29-.08.62-.11.93s-.07.5-.11.75-.09.46-.11.69a3.69,3.69,0,0,1,0,1,3.56,3.56,0,0,0-.11,1.21,1,1,0,0,1,0,.17A13.6,13.6,0,0,0,53.86,8a13.28,13.28,0,0,0-.12,1.9c0,.07,0,.16,0,.22a3.61,3.61,0,0,0-.22,1.45c0,.54-.07,1.08-.11,1.61a6,6,0,0,1-.12,1,9.63,9.63,0,0,0-.21,1.51,12.18,12.18,0,0,1-.13,1.6c-.07.33,0,.67-.1,1-.19.82-.19,1.67-.31,2.5-.08.61-.14,1.23-.22,1.84-.12.84-.16,1.69-.23,2.53,0,.48-.06,1-.12,1.44-.1.8-.23,1.58-.32,2.38,0,.2,0,.29-.09.34l-.06.29c0,.22,0,.45,0,.67s0,.23,0,.34v.17c0,.22-.07.43-.11.64s-.09.43-.11.64c0,.56-.07,1.11-.11,1.67a4,4,0,0,1-.12.92,9.45,9.45,0,0,0-.2,1.28,8.74,8.74,0,0,1-.1,1,1.57,1.57,0,0,0,0,.77,1.68,1.68,0,0,1,0,.18h0a1.82,1.82,0,0,0,.13.36l.53-.08H57V36.46c0-.65.07-1.29.09-1.94,0-.24.11-.33.33-.33h3.43c.22,0,.33.08.34.32,0,.75.07,1.5.11,2.24,0,.12,0,.29,0,.33a.23.23,0,0,1,0,.36c-.3.22-.1.35,0,.5a.77.77,0,0,0,.62.25c.54,0,1.08-.11,1.62-.11,1,0,1.92.08,2.88.1.26,0,.51,0,.77,0l-.07-1.07C67,36.32,66.88,35.58,66.79,34.82Zm-6.41-5.33c-.25,0-.54.23-.75-.1,0,0-.12,0-.16,0a5.59,5.59,0,0,1-1.73.11c-.25,0-.42-.1-.35-.35.22-.74,0-1.51.2-2.26a3.16,3.16,0,0,0,0-1l0-.16.12-1.4h0a17.84,17.84,0,0,1,.11-1.93c.06-.46,0-.93.1-1.38.13-.63,0-1.27.12-1.89s0-1.19.1-1.78c.11-1,.14-2,.24-2.93.06-.62,0-1.24.1-1.84a14,14,0,0,1,.3-2.49c.07-.16,0-.37,0-.56,0-.58.1-1.15.09-1.73,0-.36,0-.73,0-1.1A.44.44,0,0,1,59,6.53a.88.88,0,0,1,0,.15,1.91,1.91,0,0,1,.11.41c.05.84,0,1.68.13,2.52s.15,1.84.23,2.76c.05.51.05,1,.09,1.55.07.94.1,1.88.24,2.81.07.47.06.92.09,1.38.07,1,.09,1.93.24,2.87.08.49,0,1,.09,1.44s.08.7.11,1a2.61,2.61,0,0,0,.11,1c0,.08,0,.19,0,.28s0,1,0,1.15c0,.5.06,1,.11,1.51,0,.21.07.42.1.63a3.06,3.06,0,0,0,.1.87C60.92,29.35,60.78,29.52,60.38,29.49Z"/><path class="cls-1" d="M51.53,37.31a2.89,2.89,0,0,1-1.17-1.13,3.42,3.42,0,0,1-.86-1.54c-.08-.54-.07-1.1-.1-1.65a19.92,19.92,0,0,0,0-2c-.11-.69,0-1.4-.1-2.1a11.39,11.39,0,0,0-.09-1.14,17.07,17.07,0,0,0-.51-2.2,4.46,4.46,0,0,0-1.34-2,6.07,6.07,0,0,1-.64-.45,10.79,10.79,0,0,0-2.51-1.54,2.64,2.64,0,0,0-.64-.19c-.26-.07-.52-.16-.79-.22s-.19-.26-.1-.38a7.88,7.88,0,0,1,1.6-1.18,6.08,6.08,0,0,0,1.39-1.31c.38-.5.77-1,1.14-1.5a10.29,10.29,0,0,0,.64-1c.18-.32.29-.67.45-1,.37-.75.76-1.49,1.13-2.25a3.15,3.15,0,0,0,.37-1,7.57,7.57,0,0,0,.27-1.89.29.29,0,0,1,0-.16,1.6,1.6,0,0,0,0-1.16,2.15,2.15,0,0,1,0-.71,2.49,2.49,0,0,0,0-.61,7.37,7.37,0,0,0-.56-1.78,4.38,4.38,0,0,0-.83-1.51,10.73,10.73,0,0,1-1-1,4.46,4.46,0,0,0-1.78-1.41A2.41,2.41,0,0,1,45.13,1,2,2,0,0,0,43.34.7a.34.34,0,0,0,.14.08,8.66,8.66,0,0,1,.89.12c.27.07.37.43.69.46l0,.1c-.15-.07-.36.15-.5-.16-.06-.13-.4-.12-.62-.18a2.69,2.69,0,0,1-1-.3.4.4,0,0,0-.36-.11,4.94,4.94,0,0,1-1.33,0A7,7,0,0,0,37.89.58a7.61,7.61,0,0,1-2.16.3c-.27,0,.13-.16-.08-.05s-.59-.1-.9-.07-.61.2-.84-.11c.3,0,.6-.07.9-.09a5.23,5.23,0,0,1,.56,0c.2,0-.32,0-.12,0A.44.44,0,0,0,35.4.5a.84.84,0,0,0-.14-.06c-.37,0,0,0-.39-.08a3.9,3.9,0,0,0-1.16.11c-.11,0-.23,0-.34,0,0,.26-.18.15-.31.18L32.51.8h0l.06.32a1.14,1.14,0,0,1,.22.32.4.4,0,0,1,0,.32.57.57,0,0,0,0,.66.57.57,0,0,1,0,.39,6.79,6.79,0,0,0-.25,2.1c0,.82.06,1.63.07,2.44,0,.53,0,1.06,0,1.58a6.15,6.15,0,0,0,.07.75,6.32,6.32,0,0,1-.07,1.43,15,15,0,0,0,0,2.22c0,.12.07.27,0,.37a2,2,0,0,0,0,1c.08.81.08,1.62.09,2.44,0,2.13-.15,4.26,0,6.39.1,1.37.05,2.75.06,4.13,0,.33,0,.67,0,1v1.22c0,1.36-.07,2.71,0,4.07.06.82,0,1.66,0,2.49a2.48,2.48,0,0,1-.19,1.11c0,.06-.05.15,0,.19a.42.42,0,0,1,.09.15l.22.33c.76-.06,1.53,0,2.29-.08a3.14,3.14,0,0,1,.92,0l.86.07h0l.87-.07s-.09,0-.14-.06a.94.94,0,0,1,.15-.06l.4-.06a3.12,3.12,0,0,1-.15-.39,2.61,2.61,0,0,1,0-.48c0-2.43.06-4.86.11-7.29,0-.73.1-1.47.14-2.21,0-.14,0-.19.19-.18a4,4,0,0,0,1.08-.2A3.79,3.79,0,0,1,41,27.11a8.6,8.6,0,0,1,2.21.64,1.91,1.91,0,0,1,1,1.28h0a7.34,7.34,0,0,1,.21,1h0a.53.53,0,0,0,0,.12c0,1.06,0,2.11.06,3.17s0,1.92-.06,2.88a6.19,6.19,0,0,0,0,1.49c0,.26.33.59.56.54a6.37,6.37,0,0,1,1.06,0c1-.06,2-.2,3-.16a3,3,0,0,1,.5.1c.28.05.6.18.83.09a1.25,1.25,0,0,1,.87-.1.55.55,0,0,0,.65-.27C52,37.59,51.71,37.39,51.53,37.31ZM38.12,8a1.77,1.77,0,0,1,0,.2c0,.78.05,1.55.08,2.33a.8.8,0,0,0,0,.15.48.48,0,0,0,.08-.16,1.92,1.92,0,0,0,.11-.46c0-1-.05-2-.06-3.06,0-.69.16-.79.82-.62a7.68,7.68,0,0,0,1.44,0c.22-.35.49-.09.71-.07A5.76,5.76,0,0,1,43.46,7a1.41,1.41,0,0,1,.54.57,2.86,2.86,0,0,1,0,2.68c-.24.49-.43,1-.66,1.48s-.37.83-.6,1.22-.66,1-1,1.45a16.45,16.45,0,0,1-2.3,2.11c-.27.28-.92.6-1.16.9,0,0-.08.08-.12.07s-.07-.05-.09-.09,0-.08,0-.11c0-1.85,0-3.69,0-5.54a2.36,2.36,0,0,1,.12-.51c0-.07-.09-.08-.09-.1a18,18,0,0,1-.09-2.94A1.22,1.22,0,0,1,38.12,8Z"/></g></g></svg>