<svg id="Modo_de_isolamento" data-name="Modo de isolamento" xmlns="http://www.w3.org/2000/svg" viewBox="0 0 32.5 14.1"><defs><style>.cls-1{fill:#fff;}</style></defs><path class="cls-1" d="M.2-19,0-17.22l.2,1.8a.1.1,0,0,0,.1.1.1.1,0,0,0,.1-.1l.3-1.8L.4-19a.1.1,0,0,0-.1-.1.1.1,0,0,0-.1.1" transform="translate(0 27.52)"/><path class="cls-1" d="M1.4-20.12l-.3,2.9.3,2.9a.1.1,0,0,0,.1.1.1.1,0,0,0,.1-.1l.4-2.9-.4-2.9a.1.1,0,0,0-.1-.1h0l-.1.1" transform="translate(0 27.52)"/><path class="cls-1" d="M5.2-20.52,5-17.22l.2,3.5a.22.22,0,0,0,.2.2.22.22,0,0,0,.2-.2l.4-3.5-.3-3.3a.22.22,0,0,0-.2-.2c-.2,0-.3.1-.3.2" transform="translate(0 27.52)"/><path class="cls-1" d="M2.7-20.72l-.3,3.5.3,3.3a.22.22,0,0,0,.2.2.35.35,0,0,0,.1-.2l.3-3.3L3-20.72a.22.22,0,0,0-.2-.2c0,.1-.1.1-.1.2" transform="translate(0 27.52)"/><path class="cls-1" d="M3.9-20.82l-.3,3.6.3,3.4a.22.22,0,0,0,.2.2.22.22,0,0,0,.2-.2l.3-3.4-.3-3.6a.22.22,0,0,0-.2-.2c-.1,0-.1.1-.2.2" transform="translate(0 27.52)"/><path class="cls-1" d="M6.5-22.62l-.3,5.4.3,3.5a.22.22,0,0,0,.2.2c.2,0,.3-.1.3-.2l.3-3.5L7-22.62a.22.22,0,0,0-.2-.2c-.2,0-.3.1-.3.2" transform="translate(0 27.52)"/><path class="cls-1" d="M7.8-23.82l-.2,6.6.2,3.5a.27.27,0,0,0,.3.3.32.32,0,0,0,.3-.3l.3-3.5-.3-6.6a.27.27,0,0,0-.3-.3.27.27,0,0,0-.3.3" transform="translate(0 27.52)"/><path class="cls-1" d="M13.1-24.12l-.2,6.9.2,3.3a.43.43,0,0,0,.4.4.43.43,0,0,0,.4-.4l.2-3.3-.2-7a.43.43,0,0,0-.4-.4c-.3.1-.4.2-.4.5" transform="translate(0 27.52)"/><path class="cls-1" d="M9.1-24.42l-.2,7.2.2,3.4a.27.27,0,0,0,.3.3.27.27,0,0,0,.3-.3l.2-3.4-.2-7.2a.27.27,0,0,0-.3-.3.32.32,0,0,0-.3.3" transform="translate(0 27.52)"/><path class="cls-1" d="M11.7-24.42l-.2,7.2.2,3.4a.43.43,0,0,0,.4.4.43.43,0,0,0,.4-.4l.2-3.4-.2-7.2a.43.43,0,0,0-.4-.4.43.43,0,0,0-.4.4" transform="translate(0 27.52)"/><path class="cls-1" d="M10.4-24.62l-.2,7.4.2,3.4a.27.27,0,0,0,.3.3.27.27,0,0,0,.3-.3l.2-3.4-.2-7.4a.32.32,0,0,0-.3-.3.32.32,0,0,0-.3.3" transform="translate(0 27.52)"/><path class="cls-1" d="M14.4-25.52l-.2,8.3.2,3.3a.43.43,0,0,0,.4.4.43.43,0,0,0,.4-.4l.2-3.3-.2-8.3a.43.43,0,0,0-.4-.4.43.43,0,0,0-.4.4" transform="translate(0 27.52)"/><path class="cls-1" d="M15.8-26.22l-.2,9,.2,3.3a.43.43,0,0,0,.4.4.43.43,0,0,0,.4-.4l.2-3.3-.2-9a.43.43,0,0,0-.4-.4h-.1c-.2,0-.3.2-.3.4" transform="translate(0 27.52)"/><path class="cls-1" d="M17.4-27.12c-.3.1-.4.2-.4.5v12.7a.66.66,0,0,0,.4.5H28.5a4,4,0,0,0,4-4,4,4,0,0,0-4-4,3.65,3.65,0,0,0-1.5.3,7,7,0,0,0-7-6.4h-.5a7.79,7.79,0,0,0-2.1.4" transform="translate(0 27.52)"/></svg>