<svg xmlns="http://www.w3.org/2000/svg" xmlns:xlink="http://www.w3.org/1999/xlink" viewBox="0 0 54.32 59.74"><defs><style>.cls-1{fill:url(#Gradiente_sem_nome_2);}.cls-2{fill:url(#Gradiente_sem_nome_2-2);}</style><linearGradient id="Gradiente_sem_nome_2" y1="29.87" x2="27.01" y2="29.87" gradientUnits="userSpaceOnUse"><stop offset="0" stop-color="#4dedf2"/><stop offset="1" stop-color="#f5dc85"/></linearGradient><linearGradient id="Gradiente_sem_nome_2-2" x1="722.33" y1="-153.96" x2="749.34" y2="-153.96" gradientTransform="translate(776.64 -124.09) rotate(180)" xlink:href="#Gradiente_sem_nome_2"/></defs><g id="Camada_2" data-name="Camada 2"><g id="Camada_1-2" data-name="Camada 1"><path class="cls-1" d="M26.39,0a3.06,3.06,0,0,1-2.13,0c-.1,0-.26,0-.39.1-.49.24-1-.13-1.49.05-.11,0-.26-.06-.4-.07a4.29,4.29,0,0,0-1.56,0,1.84,1.84,0,0,1-.87.22c-.49-.07-1,0-1.48,0-.06.38-.13.78-.13.89-.06.75-.13,1.5-.2,2.25a15.87,15.87,0,0,1-.23,2.41c-.15.61,0,1.23-.19,1.77A23.3,23.3,0,0,0,17,10c-.18.8-.12,1.66-.23,2.48-.16,1.24-.43,2.47-.54,3.71-.09,1.08-.29,2.14-.37,3.21-.11,1.61-.4,3.17-.57,4.76-.11,1.09-.21,2.18-.39,3.27s-.27,2.11-.38,3.16c-.14,1.44-.26,2.88-.39,4.31,0,.63-.12,1.26-.19,1.88a.68.68,0,0,1-.11.31c0,.06-.11.09-.17.13a.94.94,0,0,1-.06-.15l-.15-1.79c-.06-.57-.11-1.14-.19-1.7-.14-1.09-.31-2.18-.45-3.28-.08-.66-.08-1.33-.16-2-.14-1.07-.41-2.13-.46-3.2-.07-1.39-.32-2.75-.5-4.12-.16-1.22-.22-2.45-.33-3.67,0-.58-.09-1.17-.16-1.75-.1-.75-.23-1.49-.32-2.23s0-1.31-.18-1.94c-.27-1.27-.24-2.56-.47-3.84-.12-.66-.07-1.37-.19-2a20.33,20.33,0,0,1-.31-3.57c0-.37,0-.74,0-1.11C9.72.14,9.66.07,9,.06L3.87,0C3.28,0,2.69,0,2.1,0h0L0,0H0A4.85,4.85,0,0,1,.08.57c.07.75.12,1.5.18,2.25a10.42,10.42,0,0,0,.19,1.5A8.84,8.84,0,0,1,.79,6.68,5.91,5.91,0,0,1,1,8.36c.14,1,.37,2.06.5,3.1s.24,2.34.36,3.52c0,.55.08,1.11.17,1.66a32.36,32.36,0,0,1,.51,3.78A7.24,7.24,0,0,0,2.7,22a27.85,27.85,0,0,1,.48,3.13c.18,1.08.22,2.19.36,3.27s.34,2.19.49,3.28c.13.9.23,1.81.34,2.71.17,1.27.35,2.52.5,3.79.13,1.1.22,2.2.34,3.3a9.5,9.5,0,0,0,.17,1.42,11.51,11.51,0,0,1,.3,2h0L6,47.29H6c.09.5.18,1,.23,1.51.13,1.23.22,2.46.33,3.69.05.52.09,1,.16,1.57.1.71.25,1.41.32,2.11.09.87.1,1.74.17,2.61,0,.32.13.68.49.77a3.93,3.93,0,0,0,1.27.17c1-.08,2,0,3,0a3.75,3.75,0,0,0,.58,0l1.72-.32c1.23-.25,2.41.44,3.64.18.36.44.83-.19,1.21.12.13-.11.22-.15.27-.14h0l.34-.1.1-.17.35-.59a.71.71,0,0,1,0-.33c.08-.7.14-1.39.2-2.09.08-1,.14-2.08.21-3.12a1.09,1.09,0,0,1,0-.18,12.94,12.94,0,0,0,.38-2.63,17.82,17.82,0,0,1,.2-2.19A22.8,22.8,0,0,0,21.49,45c0-.74.1-1.48.2-2.21.17-1.19.45-2.37.54-3.57s.23-2.5.41-3.75.32-2.33.39-3.5.26-2.4.39-3.61.27-2.35.4-3.53.23-2.19.4-3.28.33-2.43.41-3.65a35.83,35.83,0,0,1,.4-3.59c.2-1.25.33-2.51.41-3.78.07-1.12.3-2.23.39-3.34a25.11,25.11,0,0,1,.79-3.76.83.83,0,0,0,0-.35c-.07-.18-.29.37-.3,0a1.84,1.84,0,0,1,.17-.48c.09-.27.19-.54.27-.81A7,7,0,0,0,27,.62C27.05.15,26.81-.09,26.39,0Z"/><path class="cls-2" d="M27.92,59.7a3.06,3.06,0,0,1,2.13,0c.1.05.27,0,.39-.1.49-.23,1,.13,1.49,0,.11,0,.27.07.4.07a4.35,4.35,0,0,0,1.57,0,1.81,1.81,0,0,1,.87-.22c.49.06,1,0,1.47.05.07-.38.13-.79.14-.9,0-.75.13-1.49.19-2.24a16.13,16.13,0,0,1,.24-2.42c.15-.6,0-1.22.19-1.76a21.36,21.36,0,0,0,.32-2.35c.18-.81.13-1.66.24-2.49.15-1.24.42-2.46.53-3.7.09-1.08.3-2.15.37-3.22.11-1.6.41-3.17.57-4.75.12-1.1.22-2.19.39-3.27s.28-2.11.38-3.17c.15-1.44.26-2.87.39-4.31.06-.63.12-1.25.19-1.88a1.28,1.28,0,0,1,.11-.31,1.4,1.4,0,0,1,.18-.13.58.58,0,0,1,0,.16c.06.59.1,1.19.16,1.79s.11,1.13.18,1.7c.15,1.09.32,2.18.45,3.27.08.66.08,1.33.17,2,.14,1.07.41,2.13.46,3.2.07,1.39.32,2.74.5,4.12.15,1.21.22,2.44.32,3.67,0,.58.09,1.17.17,1.75.09.74.23,1.48.32,2.23s0,1.31.18,1.94c.26,1.26.23,2.56.47,3.83.12.67.06,1.38.18,2a18.48,18.48,0,0,1,.31,3.56c0,.37,0,.75,0,1.12,0,.65.07.73.68.74l5.17,0c.6,0,1.19,0,1.78,0h2.1c0-.19-.07-.37-.09-.55-.07-.75-.11-1.51-.18-2.26a10.6,10.6,0,0,0-.18-1.5,8.84,8.84,0,0,1-.34-2.36,5.57,5.57,0,0,1-.19-1.67c-.13-1-.36-2.07-.5-3.1s-.23-2.35-.35-3.52c-.05-.56-.08-1.12-.18-1.66a34.5,34.5,0,0,1-.51-3.79,7.22,7.22,0,0,0-.18-1.55,28,28,0,0,1-.48-3.14c-.19-1.08-.22-2.18-.36-3.27s-.34-2.18-.5-3.28c-.13-.9-.22-1.81-.34-2.71-.16-1.26-.35-2.52-.49-3.78-.14-1.1-.23-2.2-.34-3.3a13.3,13.3,0,0,0-.17-1.43,11.25,11.25,0,0,1-.31-2h0l-.27-2.41h0c-.09-.5-.18-1-.23-1.5-.14-1.23-.22-2.46-.33-3.69,0-.53-.1-1.06-.17-1.58-.09-.7-.25-1.4-.32-2.11-.08-.87-.09-1.74-.17-2.6a.76.76,0,0,0-.48-.77A3.93,3.93,0,0,0,45.39,0c-1,.07-2,0-3,0a5.49,5.49,0,0,0-.58,0c-.58.09-1.15.2-1.72.32C38.88.59,37.7-.09,36.47.16c-.36-.44-.83.2-1.2-.11-.14.11-.22.14-.28.13h0l-.35.1-.09.17-.35.6a1.13,1.13,0,0,1,0,.33c-.08.69-.15,1.39-.2,2.08-.08,1-.15,2.09-.22,3.13a1,1,0,0,1,0,.17,11.76,11.76,0,0,0-.38,2.64,16.07,16.07,0,0,1-.21,2.19,25.8,25.8,0,0,0-.38,3.18,20.62,20.62,0,0,1-.2,2.21c-.16,1.19-.44,2.37-.53,3.57s-.23,2.5-.41,3.75-.33,2.32-.39,3.5-.27,2.4-.39,3.6-.27,2.36-.4,3.54-.24,2.18-.41,3.28-.33,2.43-.4,3.65-.22,2.39-.41,3.58S29,48,28.87,49.24c-.07,1.12-.3,2.22-.39,3.34a25,25,0,0,1-.78,3.75.6.6,0,0,0,0,.35c.06.19.28-.36.29.06,0,.15-.11.31-.17.47s-.18.54-.26.82a5.29,5.29,0,0,0-.28,1.09C27.26,59.59,27.5,59.82,27.92,59.7Z"/></g></g></svg>